<mxfile host="65bd71144e">
    <diagram id="ld86vjVZDyeSocJVSmYW" name="Page-1">
        <mxGraphModel dx="1313" dy="1001" grid="1" gridSize="10" guides="1" tooltips="1" connect="1" arrows="1" fold="1" page="1" pageScale="1" pageWidth="1600" pageHeight="900" math="0" shadow="0">
            <root>
                <mxCell id="0"/>
                <mxCell id="1" parent="0"/>
                <mxCell id="49" value="" style="group" vertex="1" connectable="0" parent="1">
                    <mxGeometry x="200" y="40" width="998.54" height="820" as="geometry"/>
                </mxCell>
                <mxCell id="45" value="" style="group" parent="49" vertex="1" connectable="0">
                    <mxGeometry width="998.5400000000001" height="820" as="geometry"/>
                </mxCell>
                <mxCell id="18" value="result" style="whiteSpace=wrap;html=1;strokeColor=#F0F0F0;strokeWidth=5;" parent="45" vertex="1">
                    <mxGeometry x="634.8333774834437" width="158.7083443708609" height="79.35483870967742" as="geometry"/>
                </mxCell>
                <mxCell id="48" value="" style="group" vertex="1" connectable="0" parent="45">
                    <mxGeometry y="125.64516129032259" width="998.5400000000001" height="694.3548387096774" as="geometry"/>
                </mxCell>
                <mxCell id="40" style="edgeStyle=none;html=1;fontSize=20;" parent="48" source="18" edge="1">
                    <mxGeometry relative="1" as="geometry">
                        <mxPoint x="290.9652980132451" y="112.4193548387097" as="targetPoint"/>
                    </mxGeometry>
                </mxCell>
                <mxCell id="46" value="" style="group;fontSize=20;" parent="48" vertex="1" connectable="0">
                    <mxGeometry width="998.5400000000001" height="694.3548387096774" as="geometry"/>
                </mxCell>
                <mxCell id="12" value="details_selling" style="whiteSpace=wrap;html=1;strokeColor=#F0F0F0;strokeWidth=5;fontSize=20;" parent="46" vertex="1">
                    <mxGeometry x="214.25626490066225" y="125.64516129032259" width="158.7083443708609" height="79.35483870967742" as="geometry"/>
                </mxCell>
                <mxCell id="15" value="shop" style="whiteSpace=wrap;html=1;strokeColor=#F0F0F0;strokeWidth=5;fontSize=20;" parent="46" vertex="1">
                    <mxGeometry y="125.64516129032259" width="158.7083443708609" height="79.35483870967742" as="geometry"/>
                </mxCell>
                <mxCell id="42" value="" style="edgeStyle=none;html=1;fontSize=20;" parent="46" source="12" target="15" edge="1">
                    <mxGeometry relative="1" as="geometry"/>
                </mxCell>
                <mxCell id="20" value="detail_pre" style="whiteSpace=wrap;html=1;strokeColor=#F0F0F0;strokeWidth=5;fontSize=20;" parent="46" vertex="1">
                    <mxGeometry x="634.8333774834437" y="370.32258064516134" width="158.7083443708609" height="79.35483870967742" as="geometry"/>
                </mxCell>
                <mxCell id="23" value="shop" style="whiteSpace=wrap;html=1;strokeColor=#F0F0F0;strokeWidth=5;fontSize=20;" parent="46" vertex="1">
                    <mxGeometry x="634.8333774834437" y="493.3225806451614" width="158.7083443708609" height="79.35483870967742" as="geometry"/>
                </mxCell>
                <mxCell id="35" value="" style="edgeStyle=none;html=1;fontSize=20;" parent="46" source="20" target="23" edge="1">
                    <mxGeometry relative="1" as="geometry"/>
                </mxCell>
                <mxCell id="41" value="" style="edgeStyle=none;html=1;fontSize=20;" parent="46" source="2" target="12" edge="1">
                    <mxGeometry relative="1" as="geometry"/>
                </mxCell>
                <mxCell id="2" value="recommand" style="whiteSpace=wrap;html=1;strokeColor=#F0F0F0;strokeWidth=5;fontSize=20;" parent="46" vertex="1">
                    <mxGeometry x="424.54482119205295" y="125.64516129032259" width="158.7083443708609" height="79.35483870967742" as="geometry"/>
                </mxCell>
                <mxCell id="3" value="seasons hot" style="whiteSpace=wrap;html=1;strokeColor=#F0F0F0;strokeWidth=5;fontSize=20;" parent="46" vertex="1">
                    <mxGeometry x="839.831655629139" y="125.64516129032259" width="158.7083443708609" height="79.35483870967742" as="geometry"/>
                </mxCell>
                <mxCell id="31" value="" style="edgeStyle=none;html=1;fontSize=20;" parent="46" source="4" target="3" edge="1">
                    <mxGeometry relative="1" as="geometry"/>
                </mxCell>
                <mxCell id="33" value="" style="edgeStyle=none;html=1;fontSize=20;" parent="46" source="4" target="2" edge="1">
                    <mxGeometry relative="1" as="geometry"/>
                </mxCell>
                <mxCell id="4" value="Home" style="whiteSpace=wrap;html=1;strokeColor=#F0F0F0;strokeWidth=5;fontSize=20;" parent="46" vertex="1">
                    <mxGeometry x="633.51080794702" y="123.00000000000001" width="158.7083443708609" height="79.35483870967742" as="geometry"/>
                </mxCell>
                <mxCell id="5" value="type" style="whiteSpace=wrap;html=1;strokeColor=#F0F0F0;strokeWidth=5;fontSize=20;" parent="46" vertex="1">
                    <mxGeometry x="634.8333774834437" width="158.7083443708609" height="79.35483870967742" as="geometry"/>
                </mxCell>
                <mxCell id="32" value="" style="edgeStyle=none;html=1;fontSize=20;" parent="46" source="4" target="5" edge="1">
                    <mxGeometry relative="1" as="geometry"/>
                </mxCell>
                <mxCell id="34" value="" style="edgeStyle=none;html=1;fontSize=20;" parent="46" source="10" target="20" edge="1">
                    <mxGeometry relative="1" as="geometry"/>
                </mxCell>
                <mxCell id="10" value="incoming" style="whiteSpace=wrap;html=1;strokeColor=#F0F0F0;strokeWidth=5;fontSize=20;" parent="46" vertex="1">
                    <mxGeometry x="634.8333774834437" y="246.00000000000006" width="158.7083443708609" height="79.35483870967742" as="geometry"/>
                </mxCell>
                <mxCell id="30" value="" style="edgeStyle=none;html=1;fontSize=20;" parent="46" source="4" target="10" edge="1">
                    <mxGeometry relative="1" as="geometry"/>
                </mxCell>
                <mxCell id="24" value="comment" style="whiteSpace=wrap;html=1;strokeColor=#F0F0F0;strokeWidth=5;fontSize=20;" parent="46" vertex="1">
                    <mxGeometry x="634.8333774834437" y="615" width="158.7083443708609" height="79.35483870967742" as="geometry"/>
                </mxCell>
                <mxCell id="36" value="" style="edgeStyle=none;html=1;fontSize=20;" parent="46" source="23" target="24" edge="1">
                    <mxGeometry relative="1" as="geometry"/>
                </mxCell>
                <mxCell id="25" value="pre-buy" style="whiteSpace=wrap;html=1;strokeColor=#F0F0F0;strokeWidth=5;fontSize=20;" parent="46" vertex="1">
                    <mxGeometry x="839.831655629139" y="495.9677419354839" width="158.7083443708609" height="79.35483870967742" as="geometry"/>
                </mxCell>
                <mxCell id="37" style="edgeStyle=none;html=1;exitX=1;exitY=0.5;exitDx=0;exitDy=0;entryX=0.5;entryY=0;entryDx=0;entryDy=0;fontSize=20;" parent="46" source="20" target="25" edge="1">
                    <mxGeometry relative="1" as="geometry"/>
                </mxCell>
                <mxCell id="27" value="comment" style="whiteSpace=wrap;html=1;strokeColor=#F0F0F0;strokeWidth=5;fontSize=20;" parent="46" vertex="1">
                    <mxGeometry y="252.61290322580646" width="158.7083443708609" height="79.35483870967742" as="geometry"/>
                </mxCell>
                <mxCell id="43" value="" style="edgeStyle=none;html=1;fontSize=20;" parent="46" source="15" target="27" edge="1">
                    <mxGeometry relative="1" as="geometry"/>
                </mxCell>
                <mxCell id="29" value="accept-nofication" style="whiteSpace=wrap;html=1;strokeColor=#F0F0F0;strokeWidth=5;fontSize=20;" parent="46" vertex="1">
                    <mxGeometry x="839.831655629139" y="615" width="158.7083443708609" height="79.35483870967742" as="geometry"/>
                </mxCell>
                <mxCell id="38" value="" style="edgeStyle=none;html=1;fontSize=20;" parent="46" source="25" target="29" edge="1">
                    <mxGeometry relative="1" as="geometry"/>
                </mxCell>
                <mxCell id="28" value="&lt;font style=&quot;font-size: 20px;&quot;&gt;details_selling:game details with storage&lt;br style=&quot;font-size: 20px;&quot;&gt;detail_pre:game detail with number of per buyer&lt;/font&gt;" style="ellipse;whiteSpace=wrap;html=1;strokeColor=#F0F0F0;strokeWidth=5;fontSize=20;" parent="46" vertex="1">
                    <mxGeometry x="43.15771275446255" y="446.19694397283536" width="447.761269827549" height="205" as="geometry"/>
                </mxCell>
                <mxCell id="44" value="" style="edgeStyle=none;html=1;fontSize=20;" parent="45" source="5" target="18" edge="1">
                    <mxGeometry relative="1" as="geometry"/>
                </mxCell>
                <mxCell id="47" style="edgeStyle=none;html=1;fontSize=20;" parent="49" source="3" edge="1">
                    <mxGeometry relative="1" as="geometry">
                        <mxPoint x="799" y="40" as="targetPoint"/>
                    </mxGeometry>
                </mxCell>
            </root>
        </mxGraphModel>
    </diagram>
</mxfile>